<svg width="39" height="34" viewBox="0 0 39 34" fill="none" xmlns="http://www.w3.org/2000/svg">
<path d="M1.21875 7.28571H32.9062C33.5796 7.28571 34.125 6.74232 34.125 6.07143V1.21429C34.125 0.543393 33.5796 0 32.9062 0H1.21875C0.545391 0 0 0.543393 0 1.21429V6.07143C0 6.74232 0.545391 7.28571 1.21875 7.28571ZM37.7812 13.3571H6.09375C5.42039 13.3571 4.875 13.9005 4.875 14.5714V19.4286C4.875 20.0995 5.42039 20.6429 6.09375 20.6429H37.7812C38.4546 20.6429 39 20.0995 39 19.4286V14.5714C39 13.9005 38.4546 13.3571 37.7812 13.3571ZM32.9062 26.7143H1.21875C0.545391 26.7143 0 27.2577 0 27.9286V32.7857C0 33.4566 0.545391 34 1.21875 34H32.9062C33.5796 34 34.125 33.4566 34.125 32.7857V27.9286C34.125 27.2577 33.5796 26.7143 32.9062 26.7143Z" fill="black"/>
</svg>
