<svg width="176" height="122" viewBox="0 0 176 122" fill="none" xmlns="http://www.w3.org/2000/svg">
<path d="M119.524 63.7984C114.933 75.5495 112.121 84.1937 111.089 89.7308C109.826 97.3154 111.384 101.472 115.764 102.202C120.464 102.984 125.022 101.657 129.437 98.2207C133.852 94.784 136.513 90.3416 137.42 84.8935C138.327 79.4454 136.751 76.3833 132.692 75.7073C131.517 75.5116 128.837 75.7791 124.654 76.5096L123.531 71.3822C131.169 67.7136 136.964 66.2084 140.916 66.8666C148.287 68.0941 151.359 72.3933 150.131 79.7642C148.69 88.4171 143.591 96.6253 134.832 104.389C126.199 112.064 117.929 115.243 110.024 113.926C101.371 112.485 98.0765 105.569 100.14 93.1773C101.118 87.3019 104.393 77.8565 109.964 64.8412L96.1841 67.4869L96.6643 63.6145C97.8393 63.1515 103.02 62.038 112.207 60.2742C119.397 39.514 126.908 25.3945 134.74 17.9158C142.591 10.3303 151.43 7.35587 161.258 8.99249C165.745 9.73964 169.083 11.7777 171.274 15.1067C173.464 18.4358 174.177 22.397 173.412 26.9905C171.882 36.1775 166.23 44.0743 156.457 50.6808C146.701 57.1805 134.39 61.553 119.524 63.7984ZM121.286 59.1513C131.292 56.426 139.837 52.5792 146.922 47.6109C154.008 42.6427 157.959 37.7016 158.778 32.7876C159.205 30.2238 158.804 28.0162 157.575 26.1648C156.346 24.3133 154.61 23.2008 152.367 22.8273C147.88 22.0801 142.922 24.4932 137.493 30.0666C132.063 35.6399 126.661 45.3348 121.286 59.1513Z" fill="white"/>
<path d="M108.581 43.4385L111.477 45.987C106.998 53.3236 102.249 56.9919 97.2288 56.9919C94.3714 56.9919 91.4367 55.1384 88.4249 51.4315C85.4903 47.7246 83.714 44.1336 83.0962 40.6584C82.6329 41.5079 81.32 43.7474 79.1576 47.3771C76.9953 51.0068 75.4508 53.98 74.524 56.2968L67.5736 53.8642C69.1954 44.3653 71.1647 35.4069 73.4815 26.9892C75.8755 18.5714 78.1151 12.6636 80.2002 9.26559L84.9497 10.7715C83.5596 14.324 81.2428 23.7843 77.9992 39.1524C82.2467 30.4258 86.5328 24.0546 90.8575 20.0388C95.1823 15.9457 99.9317 13.2428 105.106 11.9299V19.5754C99.5456 19.8071 94.1783 23.5526 89.0041 30.8119C89.313 35.8317 90.7803 40.0019 93.406 43.3227C96.109 46.6435 98.6575 48.3038 101.052 48.3038C102.21 48.3038 104.72 46.6821 108.581 43.4385Z" fill="white"/>
<path d="M42.5762 104.566L48.4747 101.495C48.4747 102.969 48.9859 104.238 50.0083 105.303C51.1094 106.367 52.3677 106.899 53.7833 106.899C60.4683 106.899 68.0969 97.7284 76.6694 79.3864C77.1413 78.322 77.6918 77.1346 78.321 75.8245C78.9501 74.4325 79.422 73.4089 79.7366 72.7539C80.0512 72.0169 80.4051 71.1981 80.7983 70.2974C81.2702 69.3966 81.6241 68.7416 81.8601 68.3322C82.1746 67.8409 82.4892 67.3905 82.8038 66.9811C83.5116 66.2441 84.2981 65.8757 85.1632 65.8757C86.1069 65.8757 86.9327 66.326 87.6406 67.2267C88.3484 68.1275 88.7023 69.1919 88.7023 70.4202C88.7023 71.5666 87.208 76.6433 84.2194 85.6505C81.3095 94.5758 79.8546 99.9802 79.8546 101.863C79.8546 103.747 80.2085 105.139 80.9163 106.04C81.7028 106.94 82.4499 107.391 83.1577 107.391C83.9442 107.391 84.534 107.35 84.9273 107.268C85.3205 107.186 85.7137 107.022 86.107 106.776C86.5002 106.531 86.8148 106.326 87.0507 106.162C87.3653 105.999 87.7192 105.712 88.1124 105.303L88.9382 104.32C89.1742 104.156 89.4888 103.829 89.882 103.337C90.3539 102.764 90.6684 102.396 90.8257 102.232L93.3031 104.32C91.9661 107.759 89.8426 110.666 86.9327 113.041C84.1015 115.415 81.5061 116.603 79.1468 116.603C76.866 116.603 75.0571 115.784 73.7202 114.146C72.3832 112.426 71.7147 110.216 71.7147 107.513C71.7147 104.811 72.1472 101.331 73.0123 97.0733C69.3946 102.969 65.423 107.472 61.0974 110.584C56.7719 113.614 53.2721 115.129 50.5982 115.129C47.9242 115.129 45.9187 114.105 44.5817 112.058C43.2447 110.011 42.5762 107.513 42.5762 104.566Z" fill="white"/>
<path d="M70.3152 64.719L70.1993 69.2368L63.8281 69.4684C62.9014 74.8743 61.3955 79.2376 59.3103 82.5584C57.3024 85.8792 53.9044 89.4702 49.1164 93.3316C44.3283 97.1929 38.5749 100.398 31.8561 102.946C25.2146 105.572 19.6543 106.885 15.1751 106.885C10.6959 106.885 7.29795 105.958 4.98114 104.105C2.66433 102.329 1.50593 99.9731 1.50593 97.0385C1.50593 92.5593 4.13164 88.0801 9.38308 83.601C14.7117 79.0446 21.1216 75.2605 28.6126 72.2486C36.1808 69.1595 43.6719 67.0744 51.0856 65.9932C49.9272 64.0626 48.151 62.4794 45.757 61.2438C43.4402 60.0081 39.463 58.618 33.8254 57.0735C30.7363 56.224 29.1918 54.8339 29.1918 52.9033C29.1918 51.7448 29.6552 50.7023 30.5819 49.7756C31.5858 48.7716 33.2076 47.6132 35.4472 46.3003C37.764 44.9103 39.9263 43.5202 41.9342 42.1301C44.0194 40.6628 46.2976 38.9252 48.7688 36.9173C51.3173 34.9094 53.4411 32.8242 55.1401 30.6619C56.8391 28.4995 57.6886 26.6075 57.6886 24.9857C57.6886 22.2828 56.3371 20.9313 53.6341 20.9313C51.549 20.9313 48.6916 21.9352 45.0619 23.9431C41.5095 25.8738 37.9957 28.3837 34.5205 31.4728L29.5393 47.2271C26.0641 58.2705 22.2028 66.8427 17.9553 72.9437C13.785 79.0446 9.80783 82.0951 6.0237 82.0951C2.0079 82.0951 0 79.6238 0 74.6813C0 69.7387 2.39404 63.4447 7.18211 55.7993C11.9702 48.0766 18.6117 40.1608 27.1067 32.052C27.1067 31.9747 27.2997 31.2797 27.6859 29.9668C28.1492 28.5768 28.574 27.1867 28.9601 25.7966C30.273 21.6263 31.2769 18.962 31.972 17.8036L37.6482 18.7303C37.6482 20.1976 37.3392 21.9352 36.7214 23.9431C41.0461 20.6996 45.6025 17.8808 50.3906 15.4868C55.2559 13.0155 58.8083 11.7799 61.0479 11.7799C63.3647 11.7799 65.2182 12.5135 66.6083 13.9809C67.9984 15.3709 68.6934 17.4561 68.6934 20.2362C68.6934 22.9392 67.3805 26.0669 64.7548 29.6193C62.2063 33.1718 59.0014 36.3767 55.1401 39.2341C48.1124 44.4855 42.1273 48.2696 37.1848 50.5864C45.2164 51.8221 51.0856 53.4825 54.7925 55.5676C58.4994 57.5755 61.2024 60.626 62.9014 64.719H70.3152ZM10.0781 71.3219C12.1632 71.3219 15.2909 66.3407 19.4612 56.3785C21.2374 51.9765 22.5503 48.3083 23.3998 45.3736C24.3265 42.439 24.7899 40.8172 24.7899 40.5083C20.6196 45.0647 16.8355 50.2775 13.4375 56.1468C10.0395 62.016 8.34051 66.2635 8.34051 68.8892C8.34051 70.511 8.91972 71.3219 10.0781 71.3219ZM40.8917 92.1732C44.6758 89.6247 47.6877 86.7673 49.9272 83.601C52.1668 80.4347 53.2866 77.4614 53.2866 74.6813C53.2866 73.3684 53.0935 72.0555 52.7074 70.7427C41.1234 72.1328 31.5858 75.1832 24.0948 79.8941C16.6038 84.5277 12.8583 88.9683 12.8583 93.2157C12.8583 95.0692 13.5919 96.5365 15.0593 97.6177C16.5266 98.7761 18.5345 99.3553 21.083 99.3553C27.3384 99.3553 33.9413 96.9612 40.8917 92.1732Z" fill="white"/>
</svg>
